<!DOCTYPE svg PUBLIC "-//W3C//DTD SVG 20010904//EN" "http://www.w3.org/TR/2001/REC-SVG-20010904/DTD/svg10.dtd">
<svg version="1.0" xmlns="http://www.w3.org/2000/svg" width="1200px" height="1183px" viewBox="0 0 12000 11830" preserveAspectRatio="xMidYMid meet">
<g id="layer101" fill="#1b181b" stroke="none">
<path d="M5552 11800 c-65 -34 -103 -100 -57 -100 7 0 24 14 36 31 25 36 73 59 122 59 l34 0 12 -212 c6 -117 14 -246 17 -285 l6 -73 -41 0 c-89 0 -178 66 -207 152 -19 59 -13 106 21 146 38 45 78 58 133 43 24 -6 47 -9 50 -7 12 13 -10 34 -48 44 -117 29 -231 -91 -200 -210 45 -168 221 -250 390 -181 50 20 115 88 141 147 34 76 32 201 -3 277 -30 66 -89 129 -150 160 -65 34 -198 38 -256 9z"/>
<path d="M6103 11802 c-117 -49 -148 -153 -67 -227 l34 -32 -21 -19 c-30 -26 -59 -92 -59 -134 0 -55 38 -121 93 -157 116 -78 325 -66 378 21 31 50 23 102 -22 151 -18 20 -17 21 16 44 52 35 78 83 78 144 1 83 -50 154 -142 198 -64 31 -226 37 -288 11z m209 -22 c45 -13 69 -35 61 -56 -5 -15 -256 -144 -279 -144 -5 0 -22 13 -37 28 -96 100 82 220 255 172z m103 -406 c40 -43 27 -106 -25 -134 -40 -21 -123 -31 -176 -20 -126 26 -107 72 61 145 44 19 88 35 98 35 10 0 29 -12 42 -26z"/>
<path d="M5105 11753 c-55 -8 -101 -16 -103 -18 -2 -2 39 -263 73 -472 l6 -32 -49 6 c-49 5 -76 -8 -56 -27 8 -7 375 -52 380 -47 2 1 -8 63 -20 137 -13 74 -34 210 -46 303 l-24 167 -30 -1 c-17 -1 -76 -8 -131 -16z"/>
<path d="M6740 11763 c0 -4 -16 -116 -35 -248 -19 -132 -35 -243 -35 -247 0 -4 -18 2 -40 13 -41 21 -75 19 -68 -4 5 -12 338 -157 349 -151 4 2 10 32 13 66 9 80 75 497 82 521 6 20 4 21 -106 36 -47 7 -102 15 -122 17 -21 3 -38 2 -38 -3z"/>
<path d="M8620 9476 c0 -70 2 -68 -71 -81 -36 -7 -36 -7 -59 49 -12 31 -26 58 -30 61 -7 5 -160 -52 -173 -65 -5 -4 3 -34 17 -66 l25 -59 -22 -17 c-59 -46 -64 -46 -114 5 l-47 46 -68 -61 c-37 -33 -68 -66 -68 -73 0 -6 21 -31 47 -53 l46 -41 -29 -42 c-15 -23 -33 -43 -40 -46 -6 -2 -34 5 -63 17 -28 11 -55 20 -59 20 -8 0 -72 -148 -72 -167 0 -6 27 -22 61 -35 58 -22 60 -24 55 -52 -3 -16 -6 -37 -6 -47 0 -17 -8 -19 -75 -19 l-75 0 0 -95 0 -95 69 0 c39 0 72 -3 74 -7 3 -5 8 -26 11 -48 l7 -40 -61 -23 c-33 -13 -60 -27 -60 -32 0 -18 64 -170 71 -170 5 0 32 9 60 20 29 12 57 19 63 17 7 -3 25 -24 41 -47 l29 -41 -47 -41 c-26 -22 -47 -45 -47 -52 0 -7 30 -41 67 -75 l67 -62 47 47 c26 25 51 45 56 43 4 -3 25 -15 45 -28 l38 -23 -16 -36 c-31 -73 -35 -85 -27 -93 4 -4 37 -19 73 -32 36 -14 73 -28 83 -32 14 -6 22 4 44 51 14 33 27 61 29 63 2 2 25 -2 53 -9 l50 -12 3 -66 3 -67 95 0 95 0 3 67 3 67 55 11 c31 7 57 10 58 8 2 -1 13 -29 26 -60 13 -32 27 -58 31 -58 7 0 171 69 176 73 1 2 -6 21 -16 43 -35 78 -35 79 10 108 l41 28 49 -48 49 -48 70 69 70 69 -46 47 -47 48 29 45 c16 25 32 46 36 46 4 0 33 -9 64 -21 31 -12 59 -17 64 -13 8 10 70 154 70 165 0 4 -28 17 -63 29 l-64 23 10 48 10 49 68 0 69 0 0 95 0 95 -68 0 -69 0 -10 45 c-10 44 -9 46 16 59 14 7 43 19 64 25 20 7 37 16 37 19 0 12 -61 156 -70 166 -5 4 -33 -1 -64 -13 -31 -12 -60 -21 -64 -21 -4 0 -20 21 -36 46 l-29 45 47 48 46 47 -68 67 -69 68 -51 -46 -51 -46 -41 26 c-45 28 -45 29 -9 109 10 22 17 41 16 43 -5 5 -169 73 -176 73 -5 0 -19 -27 -32 -60 -13 -33 -30 -60 -37 -60 -7 0 -33 5 -58 11 l-44 11 0 64 0 64 -100 0 -100 0 0 -64z m-2 -278 c8 -8 12 -63 12 -180 l0 -168 -52 -50 -52 -50 -186 2 c-217 3 -211 -1 -162 117 62 146 189 266 343 321 64 23 81 24 97 8z m319 -13 c162 -61 287 -188 343 -349 31 -88 36 -86 -175 -86 l-184 0 -50 49 -51 50 0 174 c0 95 3 177 7 180 12 12 42 7 110 -18z m-154 -486 c24 -30 21 -66 -8 -94 -30 -30 -64 -32 -99 -4 -19 15 -26 30 -26 54 0 68 88 97 133 44z m-205 -189 l52 -50 0 -169 c0 -135 -3 -171 -15 -181 -39 -32 -218 54 -316 152 -66 66 -126 166 -144 240 -14 57 -12 58 188 58 l183 0 52 -50z m711 37 c15 -19 -9 -96 -54 -172 -71 -118 -185 -211 -311 -254 -107 -37 -104 -42 -104 164 l0 176 48 49 47 48 181 1 c141 1 184 -2 193 -12z"/>
<path d="M2655 9285 c-52 -18 -124 -97 -164 -178 -17 -35 -31 -69 -31 -76 0 -7 -7 -10 -17 -7 -121 37 -226 45 -293 21 -23 -8 -46 -12 -52 -9 -5 3 -25 6 -44 6 -48 0 -84 -34 -84 -79 0 -46 13 -68 50 -83 20 -8 30 -19 30 -34 0 -35 68 -166 126 -244 l55 -73 -54 -72 c-69 -90 -112 -176 -128 -254 -12 -57 -11 -63 12 -109 29 -59 76 -86 160 -92 49 -4 174 15 222 33 10 4 17 2 17 -5 0 -26 73 -159 105 -191 19 -19 35 -43 35 -54 1 -39 46 -75 93 -75 26 0 77 34 77 52 0 5 22 30 50 55 42 38 105 140 131 211 3 7 29 4 79 -9 84 -21 179 -23 228 -6 41 15 90 62 98 93 22 88 -30 233 -127 353 -27 33 -49 64 -49 69 0 4 25 40 54 79 69 92 118 194 124 258 3 28 13 61 23 74 23 29 24 53 4 90 -18 37 -66 54 -103 39 -15 -6 -58 -10 -97 -9 -41 1 -103 -7 -150 -18 -44 -11 -80 -19 -81 -18 -1 1 -17 36 -37 77 -74 156 -164 220 -262 185z m116 -38 c46 -27 81 -70 113 -133 53 -105 58 -93 -69 -153 l-112 -52 -109 52 c-60 28 -110 53 -112 54 -2 1 8 28 22 58 75 170 172 233 267 174z m-396 -232 c33 -9 61 -18 64 -20 2 -3 -4 -38 -13 -77 -10 -40 -23 -110 -29 -155 l-11 -83 -67 -66 -67 -66 -46 58 c-57 73 -98 144 -120 209 -16 47 -16 50 1 62 51 37 54 43 52 90 -3 38 0 48 16 54 34 13 158 10 220 -6z m847 -20 c-5 -46 40 -95 88 -95 32 0 32 -1 25 -37 -11 -63 -57 -153 -118 -237 l-59 -79 -69 69 c-60 60 -69 73 -74 113 -6 55 -41 229 -50 252 -5 12 4 19 37 27 70 18 80 20 153 21 l71 1 -4 -35z m-599 -76 c26 -12 47 -25 47 -28 0 -4 -28 -24 -63 -46 -34 -22 -91 -62 -126 -89 l-64 -49 7 64 c7 59 11 80 37 181 l10 37 52 -23 c29 -13 73 -34 100 -47z m347 -69 c11 -54 20 -108 20 -120 0 -21 -3 -20 -47 14 -27 20 -83 60 -125 89 -43 28 -78 55 -78 58 0 6 99 56 170 86 31 13 32 9 60 -127z m-189 -21 c35 -23 99 -69 142 -102 l77 -59 0 -138 0 -138 -63 -50 c-35 -28 -101 -75 -147 -106 l-84 -55 -36 21 c-56 34 -161 108 -212 151 l-48 39 0 138 0 138 45 36 c74 61 229 165 246 166 9 0 45 -19 80 -41z m-397 -416 c0 -1 -27 24 -59 57 l-59 60 54 55 55 56 5 -113 c3 -62 5 -114 4 -115z m708 165 c21 -21 38 -44 38 -52 0 -11 -92 -106 -102 -106 -2 0 -3 49 -3 109 0 122 -4 119 67 49z m-694 -286 c6 -48 20 -119 30 -158 l19 -72 -36 -12 c-20 -6 -83 -14 -141 -17 -99 -5 -107 -3 -140 19 -19 13 -40 35 -47 48 -38 76 15 221 134 368 l35 43 67 -66 67 -65 12 -88z m818 143 c108 -147 147 -275 104 -343 -27 -44 -74 -62 -163 -62 -57 0 -182 21 -193 33 -1 1 6 36 17 77 10 41 23 111 29 155 l10 80 67 67 c37 38 69 68 70 68 2 0 28 -34 59 -75z m-587 -237 c23 -13 41 -26 41 -29 0 -7 -45 -30 -147 -75 l-52 -23 -11 39 c-25 99 -29 119 -36 179 l-7 63 86 -65 c47 -36 104 -76 126 -89z m357 100 c-4 -29 -16 -92 -27 -140 l-20 -87 -27 10 c-15 5 -62 26 -106 47 l-78 37 98 67 c55 37 113 78 129 92 17 14 32 25 34 26 2 0 1 -24 -3 -52z m-199 -186 c43 -21 92 -45 110 -53 l32 -14 -21 -50 c-26 -60 -87 -155 -109 -168 -11 -7 -23 -2 -46 22 -40 39 -88 42 -126 7 l-26 -25 -27 32 c-34 41 -101 180 -88 184 5 2 54 25 109 52 55 27 103 50 107 50 4 1 42 -16 85 -37z"/>
<path d="M2627 8620 c-34 -27 -48 -79 -36 -125 26 -91 171 -108 215 -23 25 49 18 96 -20 134 -30 30 -41 34 -84 34 -35 0 -57 -6 -75 -20z"/>
<path d="M10470 8652 c0 -6 45 -85 124 -219 24 -41 28 -43 74 -43 l48 0 77 -131 77 -130 -26 -40 c-24 -39 -26 -69 -5 -69 6 0 49 66 97 148 48 81 133 225 189 320 l102 172 -378 0 c-209 0 -379 -3 -379 -8z m542 -284 c-11 -18 -43 -71 -70 -116 l-50 -84 -65 109 -64 108 96 6 c53 3 113 6 134 7 l39 2 -20 -32z"/>
<path d="M700 8500 l-61 -121 88 -41 c49 -22 144 -67 213 -100 69 -33 153 -73 188 -89 34 -16 62 -31 62 -34 0 -2 -10 -21 -22 -42 -57 -99 -111 -143 -178 -143 -49 0 -162 42 -329 121 -116 55 -154 70 -163 61 -8 -8 -8 -15 -3 -21 13 -13 314 -147 384 -172 79 -28 159 -25 206 7 47 31 66 54 109 125 70 116 94 226 62 287 -29 56 -84 93 -279 187 -109 52 -202 95 -208 95 -5 0 -36 -54 -69 -120z"/>
<path d="M11420 8008 c-63 -5 -210 -14 -327 -21 -117 -7 -215 -16 -219 -19 -3 -4 14 -60 39 -125 l45 -118 74 0 c40 0 115 4 166 9 l94 8 -96 -126 c-53 -70 -96 -130 -96 -134 0 -5 68 -26 150 -47 83 -21 150 -42 150 -46 0 -4 -45 -36 -101 -71 -134 -84 -154 -101 -146 -122 4 -10 13 -16 20 -13 24 9 538 380 533 385 -3 2 -98 27 -211 56 l-206 51 126 168 c70 93 125 169 123 171 -1 1 -55 -2 -118 -6z"/>
<path d="M390 7881 c0 -9 9 -54 20 -101 22 -93 24 -100 73 -337 l35 -163 -27 7 c-14 3 -77 23 -140 44 -62 21 -118 36 -122 33 -27 -17 -1 -34 94 -63 56 -18 194 -61 305 -97 112 -36 206 -63 208 -61 3 3 -5 45 -17 93 -42 174 -106 509 -98 512 5 2 62 -15 128 -37 133 -46 164 -50 159 -24 -2 13 -43 29 -158 64 -85 26 -224 69 -307 97 -128 42 -153 47 -153 33z"/>
<path d="M154 7050 c-9 -41 -22 -101 -29 -133 -10 -44 -11 -59 -2 -62 11 -3 391 -80 544 -110 l62 -12 17 76 c9 42 22 102 29 134 7 31 13 57 12 58 -1 0 -140 28 -309 62 l-308 63 -16 -76z"/>
<path d="M11174 7113 c3 -10 17 -76 31 -147 14 -71 28 -132 30 -136 3 -4 21 -11 40 -14 19 -4 39 -15 44 -24 5 -9 21 -75 35 -147 l27 -130 -42 -36 c-38 -34 -45 -59 -16 -59 7 0 95 72 197 160 102 89 226 195 277 238 50 42 92 80 92 83 1 8 -30 20 -134 52 -44 14 -188 59 -321 101 -132 42 -246 76 -253 76 -7 0 -10 -7 -7 -17z m439 -396 c5 -1 -38 -42 -95 -90 l-103 -88 -22 108 c-32 158 -42 147 95 107 64 -19 121 -36 125 -37z"/>
<path d="M58 6548 c-8 -84 -14 -153 -14 -154 1 -1 78 -53 173 -116 l171 -114 -190 -75 c-181 -71 -212 -89 -191 -110 8 -8 86 23 606 244 53 22 97 44 97 47 0 6 -610 424 -626 428 -7 2 -16 -51 -26 -150z"/>
<path d="M11720 6350 c-41 -4 -127 -8 -191 -9 -64 0 -143 -4 -176 -7 l-60 -7 73 -104 c81 -116 274 -416 274 -426 0 -4 -66 -8 -147 -9 -136 -3 -148 -5 -151 -22 -4 -18 2 -19 129 -13 74 4 223 10 332 13 108 4 197 9 197 11 0 2 -79 121 -175 265 -96 144 -172 264 -170 267 3 2 71 7 152 10 130 5 148 8 151 24 3 15 -5 17 -80 15 -46 -1 -117 -4 -158 -8z"/>
<path d="M455 5820 c-55 -4 -164 -8 -241 -9 -78 0 -156 -4 -173 -7 l-32 -7 7 -196 c9 -259 15 -316 34 -316 13 0 14 19 11 122 l-3 121 65 4 66 3 5 -90 c4 -49 7 -108 9 -130 1 -29 7 -41 19 -43 17 -3 17 7 11 131 l-6 134 187 8 c106 4 192 3 197 -2 4 -4 10 -67 11 -138 3 -119 5 -130 22 -133 21 -4 21 -3 -1 431 l-6 127 -41 -2 c-23 -1 -86 -5 -141 -8z"/>
<path d="M11346 5628 c-6 -46 -26 -240 -26 -259 0 -8 18 -26 40 -38 37 -20 40 -26 36 -54 -3 -18 -10 -85 -17 -151 l-12 -118 -48 -20 c-49 -21 -66 -48 -30 -48 11 0 59 18 108 41 48 23 187 86 308 141 121 55 233 107 248 115 l28 14 -273 181 c-300 199 -345 228 -352 228 -3 0 -7 -15 -10 -32z m202 -417 c56 -35 102 -67 102 -70 -1 -8 -232 -112 -238 -107 -2 3 1 42 7 87 6 45 11 100 11 121 0 22 4 38 8 36 5 -1 54 -32 110 -67z"/>
<path d="M590 5159 c-25 -4 -83 -15 -130 -24 -47 -9 -150 -27 -230 -41 -80 -13 -152 -28 -161 -32 -14 -6 -12 -25 18 -176 19 -95 45 -195 60 -228 108 -242 462 -194 491 65 l7 62 36 -50 c20 -28 46 -69 58 -92 25 -50 57 -60 46 -15 -11 47 -54 110 -123 182 -74 77 -76 69 21 86 20 3 37 9 37 13 1 3 -10 63 -22 134 -25 141 -17 133 -108 116z m-20 -309 c35 -25 47 -81 30 -149 -27 -115 -142 -185 -260 -160 -95 20 -155 86 -186 204 -7 27 -12 50 -11 51 1 1 63 13 137 27 74 15 155 30 180 36 68 14 80 13 110 -9z"/>
<path d="M11505 4790 c-109 -17 -195 -111 -211 -233 l-6 -45 -51 14 c-29 7 -54 10 -58 6 -5 -6 -27 -92 -59 -229 l-8 -32 112 -25 c61 -15 198 -47 304 -72 106 -25 195 -45 196 -43 11 13 80 326 84 382 13 176 -127 305 -303 277z m165 -64 c21 -14 51 -42 67 -62 23 -31 28 -49 31 -111 3 -40 1 -89 -2 -108 -8 -38 -25 -44 -82 -26 -16 5 -65 17 -109 27 -44 9 -118 26 -165 38 l-85 21 3 40 c4 50 49 142 83 167 73 54 189 61 259 14z"/>
<path d="M720 4417 c0 -8 10 -18 23 -24 65 -30 127 -113 127 -169 0 -25 -2 -26 -43 -22 -23 3 -83 24 -132 48 -50 23 -114 51 -144 61 -148 52 -270 -9 -286 -144 -11 -93 24 -195 90 -262 35 -34 75 -47 75 -23 0 6 -19 27 -41 46 -51 43 -82 107 -67 135 14 27 57 17 188 -43 148 -68 201 -83 264 -78 100 8 151 72 151 188 0 103 -28 174 -96 243 -40 40 -65 57 -83 57 -15 0 -26 -6 -26 -13z"/>
<path d="M1000 3870 c-8 -5 -135 -60 -282 -121 -148 -62 -268 -116 -268 -121 0 -19 104 -238 114 -238 20 0 566 233 566 242 0 11 -99 231 -108 240 -4 4 -14 3 -22 -2z"/>
<path d="M10933 3788 c-6 -7 -65 -120 -132 -250 l-121 -237 52 -24 c149 -69 372 -174 440 -208 l77 -39 116 231 c63 126 113 234 110 239 -16 26 -36 2 -81 -95 -26 -58 -51 -105 -55 -105 -4 0 -32 11 -62 26 -45 20 -55 28 -49 42 4 9 29 59 55 109 49 97 56 123 33 123 -8 0 -38 -50 -70 -115 -30 -63 -58 -115 -61 -115 -4 0 -59 25 -123 56 -65 31 -140 67 -169 81 l-52 25 62 124 c43 87 58 127 51 134 -8 8 -14 7 -21 -2z"/>
<path d="M1115 3448 c-38 -22 -155 -88 -260 -145 -104 -58 -193 -108 -198 -112 -12 -11 153 -280 203 -332 139 -143 394 -108 497 68 33 57 43 174 20 240 -15 44 -176 323 -186 322 -3 0 -37 -18 -76 -41z m218 -265 c31 -69 30 -163 -3 -226 -83 -164 -301 -203 -441 -79 -18 16 -42 43 -51 59 l-17 29 107 61 c164 94 366 203 375 203 4 0 18 -21 30 -47z"/>
<path d="M10628 3065 c-98 -27 -146 -72 -272 -257 l-86 -126 37 -23 c21 -13 135 -86 253 -162 118 -77 220 -141 226 -144 11 -4 144 177 197 269 37 63 51 144 36 204 -27 113 -108 201 -217 234 -73 23 -107 24 -174 5z m178 -42 c73 -25 148 -104 169 -178 10 -34 15 -76 12 -101 -5 -47 -43 -133 -62 -140 -11 -4 -202 114 -408 250 -62 42 -62 39 -8 99 70 78 191 106 297 70z"/>
<path d="M5376 2894 c-76 -87 -231 -170 -371 -199 -140 -29 -406 -15 -559 30 -57 17 -66 18 -66 7 0 -8 40 -23 278 -107 73 -26 131 -49 130 -50 -7 -8 -220 15 -288 31 -41 9 -85 19 -97 21 -13 3 -23 1 -23 -5 0 -5 92 -40 205 -77 113 -37 205 -69 205 -72 0 -13 -186 12 -288 38 -129 33 -122 32 -122 20 0 -5 102 -42 227 -83 135 -43 218 -74 204 -76 -46 -7 -247 18 -341 42 -52 14 -97 23 -99 21 -2 -2 63 -89 145 -192 147 -187 511 -650 672 -856 46 -59 97 -114 112 -122 16 -8 68 -27 117 -42 79 -24 104 -27 243 -27 133 -1 166 2 234 22 96 28 216 87 304 149 63 46 65 46 91 29 205 -131 439 -174 661 -120 117 29 285 116 376 196 l34 30 -20 28 c-26 37 -25 42 6 29 15 -5 28 -8 30 -6 2 2 -8 20 -21 40 l-25 37 31 -7 31 -6 -17 26 -17 27 58 -20 c31 -11 58 -19 60 -18 2 3 -74 120 -315 488 -60 91 -199 305 -311 475 -111 171 -204 312 -206 314 -2 3 -17 -7 -32 -21 -39 -38 -129 -92 -198 -121 -117 -50 -180 -61 -329 -61 -121 0 -154 4 -240 27 -107 29 -261 100 -363 166 -34 23 -64 41 -65 40 -1 0 -20 -21 -41 -45z"/>
<path d="M1517 2868 c-72 -172 -259 -649 -256 -652 6 -6 726 108 734 116 4 4 -36 60 -89 126 l-97 119 -46 -10 c-41 -10 -47 -9 -62 10 -9 12 -51 65 -95 117 l-78 97 16 42 c20 53 20 67 1 67 -8 0 -21 -15 -28 -32z m134 -290 c11 -16 19 -28 16 -28 -2 0 -53 -9 -113 -20 -159 -29 -149 -36 -100 83 23 56 46 110 49 121 6 15 17 6 68 -55 33 -41 69 -86 80 -101z"/>
<path d="M9905 2263 c-22 -20 -73 -68 -114 -106 l-73 -69 12 -42 12 -43 -69 -65 c-37 -36 -87 -82 -110 -103 l-43 -37 -51 12 c-53 13 -82 4 -57 -18 7 -6 92 -31 188 -57 96 -26 255 -69 354 -96 98 -27 181 -48 183 -45 3 3 -25 116 -62 253 -37 136 -79 291 -93 343 -14 52 -28 98 -31 102 -3 4 -24 -10 -46 -29z m-126 -390 c42 -143 44 -153 40 -158 -3 -2 -41 7 -84 19 -44 13 -101 29 -127 36 l-46 12 91 84 c51 46 95 84 98 84 3 0 16 -35 28 -77z"/>
<path d="M1852 2042 l-214 -217 79 -73 c212 -199 243 -217 368 -217 77 1 97 5 140 27 147 76 208 226 154 375 -19 51 -38 74 -157 191 -75 72 -141 132 -147 132 -5 0 -106 -98 -223 -218z m485 -100 c85 -173 -51 -375 -252 -374 -33 0 -78 7 -100 16 -50 21 -117 67 -113 77 2 5 88 94 192 199 l189 191 29 -28 c16 -15 41 -52 55 -81z"/>
<path d="M9211 1664 c-71 -19 -110 -44 -165 -105 -58 -65 -79 -128 -74 -222 6 -125 73 -222 187 -275 81 -38 201 -38 282 0 108 50 189 161 189 261 0 33 -4 47 -14 47 -9 0 -16 -18 -20 -53 -9 -68 -55 -149 -108 -187 l-41 -30 -91 123 c-240 318 -256 344 -238 360 61 55 186 72 288 40 30 -9 57 -13 61 -10 13 14 -23 38 -78 52 -67 18 -108 18 -178 -1z"/>
<path d="M2964 1288 c-59 -95 -129 -205 -154 -245 l-46 -72 -70 44 c-76 49 -94 54 -94 27 0 -12 76 -62 259 -170 142 -83 265 -152 275 -152 36 0 12 30 -51 65 -38 20 -69 38 -71 40 -2 2 58 101 134 221 170 272 170 272 164 276 -10 8 -232 138 -234 138 -2 0 -52 -78 -112 -172z"/>
<path d="M8620 1295 c-63 -35 -119 -66 -123 -68 -5 -1 50 -101 121 -222 71 -121 141 -242 156 -268 26 -46 29 -47 49 -34 12 8 66 37 120 66 53 29 97 57 97 62 0 6 -53 101 -118 212 -65 111 -133 228 -151 260 -18 31 -33 57 -34 57 -1 0 -54 -29 -117 -65z"/>
<path d="M3505 1048 c-32 -73 -90 -197 -128 -276 -38 -78 -67 -145 -64 -148 16 -16 472 -204 484 -200 30 12 5 29 -104 74 l-111 45 25 56 c14 31 26 58 29 60 2 2 58 -20 124 -49 92 -41 124 -50 132 -42 17 17 7 23 -124 77 l-117 48 13 31 c61 143 151 315 160 308 33 -25 236 -104 252 -98 12 5 14 10 7 17 -8 8 -506 229 -517 229 -1 0 -29 -60 -61 -132z"/>
<path d="M8112 1065 c-74 -21 -108 -40 -157 -90 -66 -68 -89 -125 -89 -220 -1 -101 26 -165 95 -230 74 -70 126 -89 234 -90 78 0 97 4 146 28 31 15 77 49 101 75 47 50 85 130 74 158 -9 24 -30 3 -44 -45 -23 -75 -162 -195 -192 -165 -4 5 -27 52 -50 104 -23 52 -51 115 -62 140 -21 46 -118 273 -118 276 0 1 18 9 40 18 57 22 148 20 216 -5 59 -22 149 -98 142 -120 -2 -6 -53 -32 -113 -56 -119 -48 -150 -68 -123 -78 20 -8 282 99 285 117 5 23 -66 108 -115 139 -83 52 -182 69 -270 44z"/>
<path d="M4323 860 c-96 -20 -185 -87 -231 -175 -23 -43 -27 -62 -27 -140 0 -74 4 -98 23 -137 32 -65 94 -125 160 -156 105 -50 286 -30 347 38 30 33 -4 33 -67 0 -51 -28 -71 -32 -132 -33 -39 0 -82 3 -94 7 -28 9 -27 25 11 146 13 41 48 152 77 246 l53 171 33 -7 c86 -20 181 -112 200 -195 13 -55 44 -71 44 -22 0 76 -117 211 -207 241 -64 20 -138 27 -190 16z"/>
<path d="M7313 802 c-194 -69 -276 -300 -168 -472 30 -48 89 -98 144 -124 66 -30 216 -30 282 0 67 31 124 87 159 156 56 114 37 255 -48 349 -62 69 -135 102 -236 106 -60 3 -94 -1 -133 -15z m223 -33 c250 -94 256 -435 9 -534 -33 -13 -63 -21 -67 -17 -8 8 -66 209 -123 424 -24 92 -30 130 -22 133 7 2 19 6 27 8 37 13 123 6 176 -14z"/>
<path d="M4866 723 c-3 -10 -12 -67 -21 -128 -22 -159 -31 -215 -55 -353 -12 -68 -19 -126 -16 -129 3 -3 63 17 133 45 125 50 405 153 451 167 20 6 23 4 19 -12 -15 -52 -39 -253 -33 -268 15 -40 34 12 50 140 10 72 31 208 47 304 17 95 29 174 27 176 -2 1 -59 -20 -128 -48 -147 -59 -474 -177 -478 -172 -3 3 36 230 44 259 4 10 0 22 -7 27 -20 13 -27 11 -33 -8z"/>
<path d="M6760 680 c-74 -10 -188 -23 -254 -31 -66 -7 -120 -18 -123 -25 -2 -6 5 -71 16 -145 10 -74 27 -201 37 -284 9 -82 20 -154 24 -158 6 -7 269 19 278 27 1 2 -2 32 -7 67 -39 254 -63 491 -52 498 6 4 66 13 133 20 129 12 138 15 138 37 0 17 -15 17 -190 -6z"/>
<path d="M5851 638 c-98 -15 -181 -76 -232 -170 -31 -58 -34 -70 -33 -148 0 -72 4 -93 26 -135 35 -67 92 -122 158 -154 75 -35 210 -37 282 -4 67 31 142 104 168 165 105 244 -97 488 -369 446z m172 -48 c69 -26 126 -75 157 -136 32 -63 36 -197 7 -256 -44 -87 -145 -154 -252 -165 l-55 -6 0 292 0 291 45 0 c24 0 68 -9 98 -20z"/>
</g>
<g id="layer102" fill="#254e37" stroke="none">
<path d="M3620 11648 c-76 -9 -160 -29 -160 -39 0 -4 12 -10 28 -14 58 -14 99 -51 117 -107 23 -70 48 -119 72 -140 21 -19 104 -48 139 -48 12 0 26 -6 32 -13 9 -10 -14 -23 -106 -62 -64 -27 -163 -71 -219 -97 -130 -63 -143 -59 -143 39 0 173 -120 253 -300 201 -52 -15 -190 -80 -190 -90 0 -4 16 -8 35 -8 67 0 106 -25 158 -100 65 -95 82 -105 185 -107 46 0 86 -3 89 -6 2 -3 -26 -22 -64 -42 -37 -21 -126 -71 -197 -112 -111 -65 -134 -74 -155 -67 -23 8 -27 16 -32 70 -7 75 -39 135 -92 171 -35 24 -50 28 -112 28 -64 0 -80 -4 -156 -42 -46 -23 -97 -54 -114 -67 l-30 -25 42 -1 c69 0 117 -26 163 -85 66 -85 78 -90 199 -88 58 2 100 -1 95 -5 -5 -5 -74 -54 -154 -110 -80 -55 -174 -123 -209 -150 -83 -63 -109 -60 -126 14 -28 121 -99 184 -208 184 -71 0 -171 -49 -253 -124 l-59 -55 47 6 c76 9 110 -2 174 -61 32 -29 69 -58 81 -64 30 -16 80 -15 139 3 27 8 60 15 74 15 22 0 18 -6 -35 -53 -33 -28 -112 -100 -176 -159 -134 -124 -144 -126 -178 -43 -40 97 -105 145 -196 145 -78 0 -145 -37 -237 -131 -67 -68 -85 -99 -50 -84 9 4 42 10 72 12 52 5 59 2 125 -42 39 -25 80 -48 93 -52 36 -9 105 4 156 29 25 12 48 19 52 15 3 -3 -31 -46 -76 -95 -45 -49 -88 -99 -96 -111 -10 -14 -26 -21 -47 -21 -40 0 -122 -22 -162 -43 -38 -19 -117 -102 -140 -146 -30 -59 -45 -125 -45 -203 0 -91 -1 -90 99 -58 137 43 247 124 293 214 14 27 23 67 26 116 l5 75 65 55 c204 172 222 184 166 109 -64 -85 -68 -135 -19 -230 40 -80 44 -122 14 -180 -11 -23 -19 -43 -17 -45 9 -8 134 73 185 120 91 83 115 163 74 245 -23 45 -84 101 -129 120 -46 19 -43 51 11 95 78 65 232 184 234 182 2 -1 -6 -20 -17 -41 -29 -56 -25 -87 20 -185 43 -92 43 -106 6 -178 -9 -18 -13 -32 -10 -32 19 0 137 75 182 115 88 80 113 166 71 252 -21 43 -73 91 -122 114 -15 7 -27 17 -27 24 0 13 259 197 377 268 7 4 -3 -15 -22 -43 -54 -80 -55 -105 -4 -211 l43 -91 -21 -61 c-12 -34 -20 -63 -19 -65 2 -1 30 13 63 32 79 46 159 119 183 167 23 45 26 116 6 162 -15 38 -98 115 -133 123 -56 14 -19 45 221 179 72 40 132 70 134 65 2 -5 -8 -24 -22 -43 -40 -52 -59 -105 -51 -145 3 -19 23 -67 42 -105 l37 -71 -22 -60 c-11 -34 -19 -62 -17 -65 2 -2 38 17 79 43 91 57 173 143 182 192 17 94 -25 177 -119 233 -31 19 -57 39 -57 46 0 22 442 214 448 194 2 -5 -13 -34 -33 -65 -54 -81 -56 -116 -11 -210 41 -87 45 -132 15 -188 -11 -21 -19 -40 -17 -42 9 -8 133 72 184 119 88 80 112 153 79 235 -21 48 -77 105 -126 127 -66 30 -53 49 59 84 124 39 296 81 492 121 283 59 334 83 316 155 -11 45 -68 95 -108 95 -90 0 -406 -82 -678 -175 -193 -67 -198 -66 -173 30 12 49 13 69 4 109 -13 57 -49 110 -90 131 -43 22 -128 31 -201 23z"/>
<path d="M8230 11648 c-71 -11 -122 -45 -149 -100 -24 -50 -28 -128 -9 -190 20 -67 10 -67 -209 7 -267 90 -561 165 -648 165 -37 0 -100 -59 -111 -103 -7 -29 11 -58 47 -77 24 -14 149 -45 294 -75 164 -33 376 -86 483 -120 92 -29 108 -52 50 -76 -42 -17 -92 -62 -119 -106 -32 -52 -31 -135 3 -188 36 -56 99 -110 191 -163 51 -29 60 -28 42 8 -32 61 -29 109 9 184 44 85 46 133 11 191 -44 72 -57 97 -53 100 5 6 232 -87 349 -141 54 -26 99 -53 99 -60 0 -8 -17 -22 -37 -33 -78 -40 -143 -131 -143 -201 0 -75 61 -153 179 -230 94 -62 106 -64 81 -7 -28 60 -25 95 16 181 45 94 43 134 -10 211 -20 28 -36 55 -36 59 0 4 35 -11 78 -34 135 -74 312 -182 312 -191 0 -5 -22 -20 -49 -33 -108 -55 -157 -165 -116 -262 26 -62 163 -178 248 -210 18 -6 17 -4 -2 34 -31 61 -27 109 15 192 44 85 42 129 -5 197 -17 24 -27 43 -22 43 9 0 333 -221 364 -248 20 -18 22 -32 5 -32 -7 0 -36 -16 -65 -36 -59 -41 -103 -115 -103 -173 0 -48 49 -130 102 -174 45 -37 156 -107 170 -107 4 0 -2 21 -12 46 -28 64 -25 94 15 173 42 83 45 129 10 189 l-25 43 88 -67 c198 -154 202 -158 202 -184 -1 -19 -12 -32 -52 -55 -64 -37 -103 -86 -119 -146 -17 -64 7 -126 75 -194 43 -43 185 -139 194 -131 1 2 -7 23 -18 47 -27 61 -25 89 15 169 47 94 47 140 0 210 -20 29 -34 57 -33 62 3 8 96 -66 201 -159 42 -37 44 -41 50 -110 4 -46 14 -88 30 -120 29 -56 106 -132 165 -162 53 -27 185 -71 213 -71 21 0 22 2 16 83 -15 220 -138 364 -325 383 -57 6 -61 9 -105 63 -26 31 -69 81 -97 111 -27 30 -45 57 -40 58 6 2 32 -6 58 -18 53 -25 109 -35 144 -27 13 4 54 27 92 52 74 48 119 57 185 34 18 -6 35 -9 38 -6 11 11 -163 173 -210 196 -71 34 -161 27 -214 -15 -46 -37 -82 -89 -90 -127 -4 -18 -15 -32 -30 -38 -23 -8 -34 -1 -117 79 -51 48 -129 119 -174 157 -91 77 -89 90 9 61 104 -31 149 -17 247 77 42 42 44 42 117 42 l74 0 -32 33 c-40 42 -151 115 -196 131 -132 44 -247 -28 -285 -176 -20 -77 -41 -74 -163 19 -57 42 -151 110 -210 149 -60 39 -112 76 -118 81 -7 7 21 8 81 4 116 -9 142 1 213 83 64 74 79 83 154 90 l58 6 -63 41 c-84 55 -185 94 -243 94 -107 0 -187 -81 -203 -208 -6 -48 -11 -58 -32 -65 -21 -8 -41 1 -125 50 -55 33 -144 83 -198 112 -54 29 -96 55 -94 57 2 2 43 5 90 7 103 3 120 13 187 108 50 70 94 99 153 99 20 0 37 4 37 8 0 15 -174 91 -236 102 -145 28 -253 -65 -254 -217 0 -95 -8 -96 -186 -14 -82 37 -182 81 -222 96 -66 26 -72 30 -56 42 10 7 25 13 34 13 38 0 119 32 143 56 14 14 33 47 42 72 39 108 46 119 95 146 26 14 55 26 64 26 32 0 6 18 -41 29 -82 20 -176 27 -233 19z"/>
<path d="M5260 8684 c-562 -53 -953 -218 -1245 -525 -210 -221 -335 -471 -407 -814 -19 -89 -22 -142 -25 -491 l-5 -392 -29 -6 c-16 -3 -127 -53 -247 -111 -199 -97 -218 -104 -229 -89 -7 10 -13 25 -13 33 0 9 -4 22 -9 30 -7 10 -25 -3 -76 -58 l-67 -71 -329 0 -329 0 -75 35 c-41 19 -75 38 -75 42 0 4 9 46 20 93 11 47 20 90 20 96 0 5 -20 20 -45 32 l-45 22 -23 -38 c-125 -200 -167 -271 -167 -280 0 -5 42 -35 94 -66 72 -43 108 -72 150 -123 31 -37 56 -75 56 -84 0 -15 -52 -244 -66 -290 -3 -11 31 -43 111 -105 63 -49 114 -91 115 -94 0 -3 -74 -46 -165 -95 l-165 -90 1 -100 c1 -55 4 -147 8 -205 l6 -105 42 -13 43 -14 0 -79 c0 -43 2 -79 4 -79 3 0 64 25 137 56 l133 56 110 -7 111 -7 98 57 97 57 0 130 0 131 110 -8 c74 -4 110 -3 110 4 0 6 -9 34 -20 64 l-20 54 102 100 101 101 83 -28 c81 -28 85 -28 174 -16 49 7 90 10 90 8 0 -2 -25 -49 -56 -104 l-56 -100 38 -39 39 -39 45 40 c25 21 48 39 53 40 4 0 7 -220 7 -490 l0 -490 -105 0 -105 0 2 -432 3 -433 578 -3 577 -2 0 435 0 435 -80 0 -80 0 0 639 0 639 23 6 c12 3 51 6 87 6 l65 0 211 -134 c221 -141 206 -134 464 -210 47 -14 110 -32 140 -41 35 -9 131 -62 265 -145 l210 -131 22 28 c13 15 23 34 23 42 0 7 -36 54 -79 103 -44 49 -78 95 -76 101 2 7 9 31 15 54 l11 43 88 -55 c121 -75 118 -74 138 -27 l18 40 54 -14 54 -14 112 86 c64 48 116 95 119 107 10 38 7 87 -6 92 -7 2 -49 15 -93 28 l-80 24 -11 119 c-9 108 -14 125 -45 179 l-35 60 -112 10 -113 10 -52 99 -52 98 -114 74 -114 74 -134 0 -134 0 -45 42 c-24 23 -44 47 -44 54 0 7 18 51 41 97 l41 85 96 7 97 7 180 245 c99 134 199 271 222 303 l43 58 -74 67 -75 66 -134 -7 -134 -7 -57 106 -58 105 -62 6 c-66 7 -296 22 -494 33 l-123 6 5 -24 c11 -46 36 -202 36 -222 0 -11 -54 -100 -120 -198 -66 -98 -120 -187 -120 -197 0 -11 8 -46 19 -78 36 -117 37 -114 -8 -114 -21 0 -53 3 -71 6 l-32 7 4 246 c5 228 7 252 31 331 82 272 231 452 472 572 268 134 687 166 1030 78 328 -84 568 -292 674 -586 61 -167 61 -170 61 -1161 0 -590 -3 -903 -10 -903 -5 0 -51 16 -102 35 -51 19 -99 35 -106 35 -6 0 -40 -57 -75 -126 l-62 -126 -89 6 c-86 6 -92 5 -128 -20 -21 -15 -38 -29 -38 -33 0 -3 24 -29 52 -58 l53 -54 -72 7 -73 7 -25 -58 c-14 -32 -24 -59 -22 -62 3 -2 72 -35 153 -72 l149 -69 33 -67 c31 -62 36 -67 60 -61 15 3 77 17 137 31 61 14 122 28 138 32 l27 6 0 -187 0 -186 -90 0 -90 0 2 -432 3 -433 580 0 580 0 3 433 2 432 -85 0 -85 0 0 250 c0 148 4 250 9 250 5 0 40 -6 78 -14 167 -34 150 -38 313 64 l144 90 172 0 171 0 367 440 c365 437 367 439 394 428 138 -60 270 -188 344 -332 120 -237 128 -615 18 -841 -90 -183 -255 -298 -471 -324 -50 -7 -318 -11 -666 -11 l-583 0 2 -432 3 -433 550 -3 c598 -3 698 3 903 53 581 141 968 518 1097 1070 37 161 49 277 49 480 -3 764 -318 1282 -919 1512 -53 20 -104 48 -123 66 -33 31 -34 34 -28 92 4 33 9 72 12 86 5 23 -10 37 -184 167 -104 78 -194 142 -198 142 -5 0 -37 -30 -71 -67 l-62 -68 -1 114 0 114 -86 139 c-47 76 -90 138 -94 138 -10 0 -25 -14 -336 -316 l-261 -253 -52 -121 -53 -120 -149 0 -149 0 0 -395 0 -395 26 0 27 0 -6 -67 c-4 -38 -7 -86 -7 -108 0 -65 -5 -68 -98 -48 l-82 17 0 763 c0 835 -2 880 -60 1098 -193 730 -745 1155 -1605 1235 -100 9 -450 11 -535 4z"/>
</g>
<g id="layer103" fill="#3e3b54" stroke="none">
<path d="M5384 2879 c-78 -83 -208 -155 -339 -190 -100 -26 -304 -36 -400 -20 -37 7 -69 10 -71 8 -3 -2 62 -28 143 -57 161 -57 135 -55 298 -23 17 3 27 3 24 -1 -3 -3 -43 -13 -90 -22 -63 -12 -120 -15 -227 -12 -78 3 -141 4 -140 2 12 -11 286 -94 312 -94 19 0 65 7 102 15 36 9 68 14 71 12 13 -13 -158 -37 -277 -38 -152 -2 -153 -2 19 -60 l93 -31 87 16 c166 33 268 83 376 186 l60 59 50 -33 c117 -77 258 -141 390 -177 52 -14 58 -17 25 -13 -99 14 -267 84 -395 165 l-65 41 -66 -60 c-98 -91 -226 -152 -381 -182 -83 -17 -364 -8 -458 15 -38 9 -83 18 -100 19 -18 2 -31 10 -33 20 -2 9 -8 16 -13 16 -16 0 -9 -14 27 -55 19 -22 33 -33 29 -25 -4 8 10 -3 29 -25 20 -22 36 -44 36 -50 0 -5 -14 6 -31 25 l-31 35 32 -42 c30 -40 50 -58 34 -30 -4 6 2 3 14 -7 26 -23 30 -45 5 -25 -16 13 -17 12 -4 -4 8 -9 16 -15 19 -12 7 6 32 -15 32 -27 0 -5 -6 -6 -12 -2 -9 5 -8 2 1 -9 8 -10 16 -15 19 -12 7 6 32 -15 32 -27 0 -5 -6 -6 -12 -2 -8 4 -10 3 -5 -2 5 -5 12 -9 15 -9 13 0 32 -16 32 -26 0 -6 -6 -7 -12 -3 -9 5 -9 3 1 -9 7 -9 17 -15 21 -12 12 7 41 -36 33 -48 -3 -6 -2 -7 4 -4 6 4 39 -31 74 -76 35 -45 69 -89 76 -97 15 -18 179 -227 232 -295 145 -186 213 -270 229 -281 50 -35 264 -84 367 -84 173 0 368 70 537 191 l57 41 68 -39 c155 -89 274 -123 433 -123 140 0 278 37 400 107 77 44 170 116 170 132 0 8 -18 37 -39 65 -21 28 -71 102 -110 164 -39 62 -123 194 -186 293 -63 98 -167 261 -231 362 -64 100 -118 184 -120 186 -2 2 -22 -13 -46 -32 -48 -39 -159 -97 -231 -122 -117 -39 -287 -55 -392 -37 -25 5 14 7 100 7 146 0 183 6 310 53 77 28 185 90 227 130 15 14 30 24 32 21 2 -2 57 -87 121 -189 127 -199 288 -452 431 -674 57 -90 97 -141 113 -147 13 -5 25 -8 27 -6 3 3 -139 224 -361 562 -39 61 -120 184 -180 275 -59 91 -121 186 -138 211 l-31 46 -72 -49 c-80 -54 -212 -114 -271 -122 -26 -4 -16 2 32 18 39 13 88 31 110 41 51 22 166 96 184 119 16 19 -18 68 413 -594 149 -228 276 -421 283 -428 7 -8 19 -12 28 -10 14 3 -4 32 -461 733 -65 99 -149 228 -187 287 -39 60 -73 108 -77 108 -4 0 -29 -16 -55 -36 -82 -63 -273 -145 -332 -143 -9 0 21 11 67 25 101 29 177 67 260 129 35 25 65 45 67 43 3 -3 249 -381 424 -651 281 -433 292 -449 345 -469 27 -10 50 -17 52 -16 1 2 -143 226 -321 498 -178 272 -351 538 -385 590 -85 132 -88 136 -104 125 -170 -129 -338 -188 -536 -188 -118 0 -195 12 -308 50 -83 27 -248 106 -309 147 -21 14 -43 26 -48 26 -6 0 -24 -14 -41 -31z m72 -89 c124 -78 249 -134 380 -170 54 -15 59 -18 24 -14 -93 12 -255 83 -436 190 l-32 18 -64 -60 c-62 -57 -191 -134 -250 -148 -47 -11 -31 0 32 23 75 27 197 108 241 160 19 22 36 40 38 40 2 1 32 -17 67 -39z m18 -109 c119 -75 229 -123 386 -169 19 -5 27 -10 18 -11 -54 -3 -269 87 -405 170 l-66 41 -21 -24 c-62 -71 -204 -163 -283 -182 -39 -10 -27 -2 37 25 73 30 176 98 225 148 21 23 41 41 43 41 3 0 32 -17 66 -39z m654 -95 c-44 -5 -107 -5 -145 0 -60 8 -50 9 77 9 135 0 140 0 68 -9z m76 -98 c-21 -4 -82 -7 -134 -7 -52 0 -113 3 -134 7 -21 4 39 7 134 7 95 0 155 -3 134 -7z m-146 -355 c-10 -2 -26 -2 -35 0 -10 3 -2 5 17 5 19 0 27 -2 18 -5z m220 0 c-10 -2 -26 -2 -35 0 -10 3 -2 5 17 5 19 0 27 -2 18 -5z m-1265 -70 c-13 -2 -35 -2 -50 0 -16 2 -5 4 22 4 28 0 40 -2 28 -4z m160 0 c-13 -2 -35 -2 -50 0 -16 2 -5 4 22 4 28 0 40 -2 28 -4z m1085 -140 c-10 -2 -26 -2 -35 0 -10 3 -2 5 17 5 19 0 27 -2 18 -5z m-1015 -70 c-13 -2 -35 -2 -50 0 -16 2 -5 4 22 4 28 0 40 -2 28 -4z m1075 -40 c-16 -2 -40 -2 -55 0 -16 2 -3 4 27 4 30 0 43 -2 28 -4z m155 0 c-13 -2 -35 -2 -50 0 -16 2 -5 4 22 4 28 0 40 -2 28 -4z m-1165 -70 c-15 -2 -42 -2 -60 0 -18 2 -6 4 27 4 33 0 48 -2 33 -4z m85 -110 c-24 -2 -62 -2 -85 0 -24 2 -5 4 42 4 47 0 66 -2 43 -4z m-35 -100 c-10 -2 -26 -2 -35 0 -10 3 -2 5 17 5 19 0 27 -2 18 -5z m1280 -50 c-15 -2 -42 -2 -60 0 -18 2 -6 4 27 4 33 0 48 -2 33 -4z m-80 -100 c-10 -2 -26 -2 -35 0 -10 3 -2 5 17 5 19 0 27 -2 18 -5z m270 0 c-10 -2 -26 -2 -35 0 -10 3 -2 5 17 5 19 0 27 -2 18 -5z m-1340 -70 c-10 -2 -26 -2 -35 0 -10 3 -2 5 17 5 19 0 27 -2 18 -5z m230 0 c-10 -2 -26 -2 -35 0 -10 3 -2 5 17 5 19 0 27 -2 18 -5z"/>
</g>
<g id="layer104" fill="#4c2f6a" stroke="none">
<path d="M3581 8253 l1 -568 18 64 c83 281 326 564 670 779 l95 60 3 116 3 116 -396 0 -395 0 1 -567z"/>
<path d="M6670 8703 l1 -118 82 -49 c133 -80 225 -153 347 -275 167 -167 262 -316 326 -506 l33 -100 1 583 0 582 -395 0 -395 0 0 -117z"/>
<path d="M5260 8684 c-562 -53 -953 -218 -1245 -525 -209 -220 -332 -465 -408 -814 -21 -100 -22 -102 -25 -1612 l-3 -1513 -104 0 -105 0 2 -432 3 -433 578 -3 577 -2 0 435 0 435 -80 0 -81 0 3 1468 3 1467 27 85 c87 277 232 452 473 572 268 134 687 166 1030 78 328 -84 568 -292 674 -586 63 -173 61 -119 61 -1671 l0 -1413 -90 0 -90 0 2 -432 3 -433 580 0 580 0 3 433 2 432 -85 0 -85 0 0 1445 c0 1583 1 1549 -60 1780 -193 730 -745 1155 -1605 1235 -100 9 -450 11 -535 4z"/>
<path d="M7600 6185 l0 -395 661 0 c731 0 717 1 850 -65 162 -80 268 -183 344 -334 117 -235 124 -613 15 -836 -90 -183 -255 -298 -471 -324 -50 -7 -318 -11 -666 -11 l-583 0 2 -432 3 -433 550 -3 c598 -3 698 3 903 53 581 141 968 518 1097 1070 37 161 49 277 49 480 -1 206 -17 351 -59 522 -152 629 -629 1026 -1314 1093 -57 6 -386 10 -742 10 l-639 0 0 -395z"/>
<path d="M2062 3788 l3 -433 595 0 595 0 3 433 2 432 -600 0 -600 0 2 -432z"/>
<path d="M4650 3785 l0 -435 670 0 670 0 0 435 0 435 -670 0 -670 0 0 -435z"/>
</g>
<g id="layer105" fill="#5f5d60" stroke="none">
<path d="M8640 9461 l0 -68 -47 -6 c-27 -4 -57 -9 -69 -12 -18 -6 -24 2 -45 54 -13 34 -27 61 -31 61 -9 0 -131 -52 -141 -60 -4 -4 3 -33 18 -65 14 -32 24 -59 23 -60 -2 -1 -27 -16 -56 -35 l-53 -33 -47 46 -47 46 -58 -56 -59 -55 46 -47 47 -48 -36 -54 c-20 -30 -38 -56 -40 -57 -2 -2 -29 5 -60 17 -31 12 -60 21 -64 21 -8 0 -61 -120 -61 -139 0 -5 26 -19 58 -32 31 -12 58 -23 59 -24 2 -1 -2 -27 -8 -58 l-12 -57 -68 0 -69 0 0 -85 0 -85 69 0 68 0 12 -57 c6 -31 10 -57 8 -58 -1 -1 -28 -12 -59 -24 -32 -13 -58 -27 -58 -32 0 -19 53 -139 61 -139 4 0 32 9 60 20 28 12 55 19 59 18 5 -2 25 -27 45 -57 l36 -54 -46 -47 -45 -46 58 -57 58 -57 44 45 c24 25 48 45 52 45 5 0 26 -13 49 -29 22 -17 45 -31 50 -33 6 -2 -2 -30 -16 -62 -14 -32 -22 -62 -18 -67 8 -7 132 -59 142 -59 4 0 17 27 30 61 21 52 27 60 45 54 12 -3 42 -8 69 -12 l47 -6 0 -68 0 -69 80 0 79 0 3 67 3 68 47 6 c25 4 56 10 67 14 18 5 25 -2 47 -54 15 -34 30 -61 34 -61 4 0 32 11 61 23 30 13 62 26 71 30 16 5 15 11 -8 68 -14 34 -24 62 -22 64 2 1 25 16 51 34 l49 33 26 -24 c15 -14 38 -35 52 -47 l24 -21 58 57 58 57 -47 48 -46 47 38 55 c21 31 40 56 43 56 3 0 31 -10 64 -21 32 -12 60 -20 62 -18 4 5 56 138 56 144 0 2 -27 14 -61 26 l-60 22 6 41 c12 78 10 76 81 76 l64 0 0 85 0 85 -64 0 c-71 0 -69 -2 -81 76 l-6 41 60 23 c34 12 61 24 61 26 0 5 -52 138 -56 143 -2 2 -30 -6 -62 -18 -33 -11 -61 -21 -64 -21 -3 0 -22 25 -43 56 l-38 55 46 47 47 48 -58 57 -57 57 -36 -33 c-70 -64 -63 -62 -116 -26 -26 18 -49 33 -51 34 -2 2 8 30 22 64 23 57 24 63 8 68 -9 4 -41 17 -71 30 -29 12 -57 23 -61 23 -4 0 -19 -27 -34 -61 -22 -52 -29 -59 -47 -54 -11 4 -42 10 -67 14 l-47 6 -3 68 -3 67 -79 0 -80 0 0 -69z m-19 -241 c18 -10 19 -23 19 -196 l0 -184 -55 -55 -55 -55 -179 0 c-157 0 -181 2 -201 18 -20 16 -21 21 -10 62 47 176 199 331 393 401 62 22 63 22 88 9z m325 -22 c165 -60 309 -212 357 -376 15 -50 15 -54 -3 -72 -18 -18 -35 -20 -208 -20 l-188 0 -18 31 c-10 17 -34 40 -52 51 l-34 20 0 179 c0 166 1 180 20 199 22 22 38 21 126 -12z m-161 -483 c58 -57 19 -145 -65 -145 -30 0 -43 6 -64 31 -14 17 -26 41 -26 54 0 13 12 37 26 54 34 41 92 44 129 6z m-200 -190 l55 -55 0 -184 c0 -177 -1 -186 -21 -196 -25 -14 -93 7 -194 59 -128 66 -249 214 -285 351 -11 41 -10 46 10 62 20 16 44 18 201 18 l179 0 55 -55z m715 35 c18 -18 18 -22 4 -72 -53 -179 -214 -336 -403 -392 -56 -16 -83 -11 -95 20 -3 8 -6 94 -6 189 l0 173 34 20 c18 11 42 34 52 51 l18 31 188 0 c173 0 190 -2 208 -20z"/>
<path d="M5353 2852 c-58 -56 -179 -125 -263 -152 -116 -37 -335 -51 -454 -29 -32 6 -60 8 -62 6 -3 -2 30 -16 73 -31 43 -15 108 -39 145 -52 l67 -25 87 16 c47 9 88 14 91 11 2 -2 -8 -7 -24 -10 -130 -25 -166 -28 -294 -24 -77 3 -138 4 -137 3 12 -12 289 -95 315 -95 17 0 62 7 99 15 36 9 68 14 71 12 13 -13 -158 -37 -277 -38 -152 -2 -153 -2 19 -60 l93 -31 87 17 c171 34 302 102 394 204 l38 42 52 -34 c121 -79 259 -142 392 -178 52 -14 58 -17 25 -13 -99 14 -267 84 -395 165 l-65 41 -66 -60 c-98 -91 -226 -152 -381 -182 -83 -17 -364 -8 -458 15 -38 9 -83 18 -100 19 -18 2 -31 10 -33 20 -2 9 -8 16 -13 16 -16 0 -9 -14 27 -55 19 -22 33 -33 29 -25 -4 8 10 -3 29 -25 20 -22 36 -44 36 -50 0 -5 -14 6 -31 25 l-31 35 32 -42 c30 -40 50 -58 34 -30 -4 6 2 3 14 -7 26 -23 30 -45 5 -25 -16 13 -17 12 -4 -4 8 -9 16 -15 19 -12 7 6 32 -15 32 -27 0 -5 -6 -6 -12 -2 -9 5 -8 2 1 -9 8 -10 16 -15 19 -12 7 6 32 -15 32 -27 0 -5 -6 -6 -12 -2 -8 4 -10 3 -5 -2 5 -5 12 -9 15 -9 13 0 32 -16 32 -26 0 -6 -6 -7 -12 -3 -9 5 -9 3 1 -9 7 -9 17 -15 21 -12 4 2 45 -44 91 -103 46 -59 89 -114 96 -122 16 -20 182 -231 232 -295 145 -186 213 -270 229 -281 50 -35 264 -84 367 -84 172 0 367 69 530 187 32 24 62 43 66 43 4 0 36 -17 70 -38 262 -157 551 -164 819 -19 80 43 180 119 180 136 0 8 -18 37 -39 65 -21 28 -71 102 -110 164 -39 62 -123 194 -186 293 -63 98 -167 261 -231 362 -64 100 -118 184 -120 186 -2 2 -22 -13 -46 -32 -48 -39 -159 -97 -231 -122 -117 -40 -289 -56 -392 -36 -26 4 6 7 90 6 138 0 220 13 318 51 78 31 180 88 223 127 21 18 38 26 42 20 4 -5 47 -72 95 -149 49 -76 116 -182 150 -235 34 -52 136 -211 227 -353 113 -177 172 -261 189 -267 13 -5 25 -8 27 -6 2 2 -69 116 -159 253 -90 137 -194 296 -232 354 -37 58 -111 170 -163 250 -52 80 -108 166 -125 191 l-31 46 -72 -49 c-80 -54 -212 -114 -271 -122 -25 -4 -14 2 32 17 110 36 225 98 286 154 l26 24 52 -83 c29 -46 182 -281 340 -523 219 -335 293 -441 310 -443 20 -3 16 6 -32 80 -83 128 -327 503 -461 708 -67 102 -144 220 -171 262 -28 43 -54 78 -58 78 -5 0 -27 -15 -50 -34 -72 -58 -228 -128 -312 -141 -22 -3 -3 6 43 20 102 31 178 69 260 130 35 25 65 45 67 43 3 -3 291 -445 424 -651 277 -428 293 -449 345 -469 27 -10 50 -17 52 -16 2 3 -145 230 -598 923 -82 127 -160 245 -171 262 -26 39 -31 40 -69 8 -92 -77 -262 -145 -413 -165 -126 -16 -270 1 -405 47 -84 29 -249 108 -307 147 -21 14 -42 26 -48 26 -5 -1 -38 -27 -72 -58z m103 -62 c128 -81 248 -134 384 -170 60 -16 65 -19 27 -15 -94 12 -257 78 -389 158 -42 26 -80 47 -84 47 -3 0 -35 -27 -70 -59 -64 -61 -238 -158 -265 -149 -7 2 15 14 49 27 77 27 198 108 243 160 19 22 36 40 38 40 2 1 32 -17 67 -39z m27 -114 c231 -140 413 -192 637 -184 73 3 108 2 85 -3 -67 -13 -218 -10 -305 7 -138 26 -275 82 -427 175 l-66 41 -21 -24 c-64 -73 -263 -197 -297 -186 -6 2 16 14 48 27 78 33 147 77 213 139 30 28 56 51 58 52 2 0 36 -20 75 -44z m645 -90 c-44 -5 -107 -5 -145 0 -60 8 -50 9 77 9 135 0 140 0 68 -9z m-70 -453 c-10 -2 -26 -2 -35 0 -10 3 -2 5 17 5 19 0 27 -2 18 -5z m220 0 c-10 -2 -26 -2 -35 0 -10 3 -2 5 17 5 19 0 27 -2 18 -5z m-1265 -70 c-13 -2 -35 -2 -50 0 -16 2 -5 4 22 4 28 0 40 -2 28 -4z m160 0 c-13 -2 -35 -2 -50 0 -16 2 -5 4 22 4 28 0 40 -2 28 -4z m1085 -140 c-10 -2 -26 -2 -35 0 -10 3 -2 5 17 5 19 0 27 -2 18 -5z m130 0 c-10 -2 -26 -2 -35 0 -10 3 -2 5 17 5 19 0 27 -2 18 -5z m-1145 -70 c-13 -2 -35 -2 -50 0 -16 2 -5 4 22 4 28 0 40 -2 28 -4z m1075 -40 c-16 -2 -40 -2 -55 0 -16 2 -3 4 27 4 30 0 43 -2 28 -4z m155 0 c-13 -2 -35 -2 -50 0 -16 2 -5 4 22 4 28 0 40 -2 28 -4z m-1160 -70 c-18 -2 -48 -2 -65 0 -18 2 -4 4 32 4 36 0 50 -2 33 -4z m80 -110 c-24 -2 -62 -2 -85 0 -24 2 -5 4 42 4 47 0 66 -2 43 -4z m-25 -100 c-10 -2 -28 -2 -40 0 -13 2 -5 4 17 4 22 1 32 -1 23 -4z m200 0 c-10 -2 -26 -2 -35 0 -10 3 -2 5 17 5 19 0 27 -2 18 -5z m1065 -50 c-18 -2 -48 -2 -65 0 -18 2 -4 4 32 4 36 0 50 -2 33 -4z m-75 -100 c-10 -2 -26 -2 -35 0 -10 3 -2 5 17 5 19 0 27 -2 18 -5z m270 0 c-10 -2 -26 -2 -35 0 -10 3 -2 5 17 5 19 0 27 -2 18 -5z m-1340 -70 c-10 -2 -26 -2 -35 0 -10 3 -2 5 17 5 19 0 27 -2 18 -5z m230 0 c-10 -2 -26 -2 -35 0 -10 3 -2 5 17 5 19 0 27 -2 18 -5z"/>
</g>
<g id="layer106" fill="#d2212a" stroke="none">
<path d="M3266 9039 c-50 -40 -21 -119 44 -119 65 0 94 79 44 119 -15 12 -34 21 -44 21 -10 0 -29 -9 -44 -21z"/>
<path d="M2005 9005 c-30 -30 -31 -54 -4 -89 40 -51 122 -22 122 44 0 64 -72 92 -118 45z"/>
<path d="M2664 8621 c-32 -14 -64 -60 -64 -92 0 -65 86 -117 146 -87 37 17 68 71 60 103 -15 60 -87 99 -142 76z"/>
<path d="M2670 7863 c-50 -18 -68 -84 -32 -116 42 -38 122 -6 122 49 0 41 -52 80 -90 67z"/>
</g>
<g id="layer107" fill="#ad8421" stroke="none">
<path d="M8640 9461 l0 -68 -45 -6 c-25 -4 -55 -9 -68 -12 -20 -5 -26 1 -46 52 -13 32 -26 60 -27 62 -4 4 -134 -49 -147 -59 -4 -4 4 -33 19 -65 15 -35 21 -61 16 -63 -6 -2 -29 -16 -51 -33 -23 -16 -44 -29 -49 -29 -4 0 -28 20 -52 45 l-44 45 -58 -57 -58 -57 46 -47 46 -47 -37 -56 c-21 -31 -42 -56 -46 -56 -5 0 -31 9 -59 20 -28 11 -54 20 -59 20 -7 0 -61 -125 -61 -142 0 -3 27 -16 60 -28 33 -12 60 -28 60 -34 0 -6 -6 -33 -13 -61 l-13 -50 -67 -3 -67 -3 0 -79 0 -80 69 0 69 0 11 -50 c6 -28 11 -55 11 -59 0 -5 -27 -19 -60 -31 -33 -12 -60 -25 -60 -28 0 -17 54 -142 61 -142 5 0 31 9 59 20 28 11 54 20 59 20 4 0 25 -25 46 -56 l37 -56 -46 -47 -46 -47 58 -57 58 -57 44 45 c24 25 48 45 52 45 5 0 26 -13 49 -29 22 -17 45 -31 51 -33 5 -2 -1 -28 -16 -62 -15 -33 -24 -61 -21 -64 11 -12 139 -61 146 -57 4 3 17 30 30 61 20 48 26 54 46 49 13 -3 43 -8 68 -12 l45 -6 0 -68 0 -69 80 0 80 0 0 69 0 68 48 6 c26 4 57 9 70 13 19 6 25 -1 48 -52 14 -33 27 -60 28 -61 2 -2 25 6 128 46 l28 10 -25 57 c-14 31 -25 60 -25 64 0 8 97 70 109 70 4 0 27 -20 51 -45 l44 -45 58 57 58 57 -47 48 -46 47 36 56 c21 30 41 55 47 55 5 0 32 -9 60 -20 28 -11 53 -20 56 -20 5 0 46 89 58 126 6 19 -1 24 -54 44 l-61 23 6 51 c4 28 9 54 12 59 2 4 33 7 69 7 l64 0 0 80 0 80 -64 0 c-72 0 -70 -2 -81 81 l-7 46 61 23 c54 20 61 25 55 44 -12 37 -53 126 -58 126 -3 0 -28 -9 -56 -20 -28 -11 -55 -20 -60 -20 -6 0 -26 25 -47 55 l-36 56 46 47 47 48 -58 57 -58 57 -25 -26 c-13 -14 -36 -35 -51 -45 l-26 -19 -51 31 c-28 18 -51 35 -51 39 0 4 11 33 25 64 l25 57 -28 10 c-103 40 -126 48 -128 46 -1 -1 -14 -28 -28 -61 -23 -51 -29 -58 -48 -52 -13 4 -44 9 -70 13 l-48 6 0 68 0 69 -80 0 -80 0 0 -69z m-19 -241 c18 -10 19 -23 19 -203 l0 -192 -30 -17 c-17 -10 -38 -31 -48 -48 l-17 -30 -191 0 c-178 0 -192 1 -209 20 -16 18 -17 25 -6 63 26 89 76 171 146 243 77 78 137 116 235 151 75 26 75 26 101 13z m301 -12 c195 -67 328 -208 392 -415 5 -15 1 -28 -13 -42 -20 -20 -33 -21 -209 -21 l-188 0 -17 29 c-9 16 -33 39 -52 51 l-35 22 0 177 c0 144 3 181 16 199 19 27 28 27 106 0z m-132 -493 c54 -57 15 -145 -64 -145 -44 1 -66 13 -84 47 -18 33 -14 59 14 92 35 42 98 44 134 6z m-222 -174 c18 -22 41 -42 52 -46 19 -6 20 -15 20 -201 0 -193 0 -194 -23 -205 -18 -8 -38 -6 -88 11 -181 61 -326 203 -381 374 l-23 68 24 19 c21 17 41 19 205 19 l183 0 31 -39z m732 19 c18 -18 18 -22 3 -72 -53 -182 -194 -321 -392 -389 -67 -23 -67 -23 -91 1 -19 19 -20 33 -20 199 l0 179 35 22 c19 12 43 35 52 51 l17 29 188 0 c173 0 190 -2 208 -20z"/>
</g>
<g id="layer108" fill="#817f82" stroke="none">
<path d="M5375 2868 c-54 -55 -160 -123 -239 -153 -119 -45 -214 -58 -385 -53 -102 3 -146 2 -130 -4 13 -6 72 -27 131 -48 l107 -37 78 13 c107 18 146 30 233 74 76 39 156 99 192 145 11 14 23 25 28 25 5 0 41 -21 81 -46 211 -137 477 -210 673 -184 155 20 305 79 414 163 29 22 56 37 60 33 6 -7 281 -427 422 -646 271 -421 293 -453 334 -467 22 -7 43 -12 48 -11 6 3 -177 288 -675 1048 -49 74 -92 141 -96 148 -6 11 -25 3 -77 -34 -312 -214 -713 -199 -1088 41 -30 19 -59 35 -63 35 -4 0 -26 -19 -48 -42z"/>
<path d="M5331 2755 c-145 -141 -337 -202 -610 -193 l-141 4 143 -48 c159 -54 177 -55 321 -18 127 34 245 102 326 190 l36 39 64 -41 c390 -248 790 -261 1096 -35 l62 45 129 -196 c70 -109 223 -342 338 -519 191 -293 228 -343 243 -329 3 4 -506 794 -680 1054 l-49 72 -63 -45 c-77 -55 -168 -97 -273 -127 -64 -18 -103 -22 -218 -22 -122 0 -153 4 -240 27 -106 30 -264 100 -358 160 -32 21 -61 36 -65 35 -4 0 -31 -25 -61 -53z"/>
<path d="M5350 2649 c-77 -71 -212 -141 -325 -170 -61 -16 -114 -21 -222 -22 -77 -1 -140 -3 -139 -5 2 -1 56 -20 120 -42 l117 -39 77 14 c113 21 148 32 237 78 50 26 103 65 144 104 l64 63 61 -39 c161 -102 320 -163 486 -188 218 -33 437 24 618 159 30 22 57 36 61 32 4 -5 71 -108 148 -229 477 -749 493 -773 518 -777 16 -4 22 -1 18 6 -31 49 -697 1063 -703 1070 -5 5 -30 -7 -57 -27 -64 -47 -172 -100 -258 -127 -101 -31 -299 -39 -420 -15 -144 28 -313 99 -440 185 l-40 27 -65 -58z"/>
<path d="M5404 2587 c-34 -42 -133 -116 -196 -148 -110 -56 -233 -81 -398 -81 -137 -1 -305 19 -368 43 -16 6 -23 6 -20 -2 2 -5 197 -257 433 -559 l430 -549 61 -25 c107 -44 211 -59 358 -53 106 4 146 10 211 31 100 34 202 87 283 148 l62 47 56 -35 c73 -46 163 -86 249 -110 94 -26 292 -26 385 -1 116 31 310 135 363 195 18 20 18 21 -5 54 -67 100 -120 182 -536 833 -63 99 -119 184 -123 189 -5 6 -33 -8 -66 -31 -164 -114 -331 -161 -538 -150 -192 11 -376 74 -563 193 -29 19 -54 34 -55 34 -2 0 -12 -10 -23 -23z m135 -169 c39 -60 69 -108 66 -108 -4 0 -130 185 -150 220 -21 40 19 -15 84 -112z m1027 -47 c-21 -23 -149 -87 -191 -96 -16 -3 -2 5 32 19 34 14 86 40 115 60 62 41 67 42 44 17z m-1096 -72 c-49 -42 -213 -110 -257 -108 -10 0 9 8 42 18 75 22 142 51 191 85 46 31 59 34 24 5z m184 -56 c20 -32 27 -46 14 -31 -26 30 -62 88 -55 88 2 0 21 -26 41 -57z m641 12 c-27 -7 -72 -13 -100 -13 -42 1 -39 2 24 9 41 5 76 11 79 14 3 3 15 4 26 4 12 -1 -1 -7 -29 -14z m295 -20 c-53 -35 -149 -76 -173 -74 -7 0 16 11 51 24 35 12 84 37 110 53 26 17 52 31 57 31 6 0 -15 -15 -45 -34z m-561 9 c8 -7 -84 -3 -124 6 -29 6 -17 7 40 3 44 -3 82 -7 84 -9z m-1269 -44 c20 -6 21 -8 5 -8 -11 0 -31 4 -45 8 -20 6 -21 8 -5 8 11 0 31 -4 45 -8z m770 -12 c-31 -26 -155 -85 -195 -93 -16 -3 -7 3 20 13 59 22 142 64 170 86 30 23 34 19 5 -6z m-376 -10 c-50 -9 -255 -9 -314 0 -25 4 44 7 154 7 109 0 181 -3 160 -7z m779 -345 c233 -348 259 -387 240 -368 -16 16 -485 715 -479 715 3 0 110 -156 239 -347z m777 322 c-14 -16 -101 -67 -107 -62 -3 3 102 72 116 76 2 1 -2 -6 -9 -14z m-731 -11 c8 -7 -54 -2 -79 6 -17 6 -9 7 25 3 28 -3 52 -7 54 -9z m406 6 c-11 -5 -31 -8 -45 -8 -23 0 -22 1 5 8 42 11 65 11 40 0z m-302 -17 c-18 -2 -48 -2 -65 0 -18 2 -4 4 32 4 36 0 50 -2 33 -4z m205 0 c-15 -2 -42 -2 -60 0 -18 2 -6 4 27 4 33 0 48 -2 33 -4z m-110 -10 c-10 -2 -28 -2 -40 0 -13 2 -5 4 17 4 22 1 32 -1 23 -4z m-1353 -33 c27 -7 27 -8 5 -8 -14 0 -36 4 -50 8 -20 6 -21 8 -5 8 11 0 34 -4 50 -8z m800 0 c-7 -11 -128 -80 -141 -80 -5 0 14 13 42 28 27 16 61 36 74 45 28 19 34 21 25 7z m-345 -10 c-14 -4 -36 -8 -50 -8 -22 0 -22 1 5 8 17 4 39 8 50 8 16 0 15 -2 -5 -8z m1290 -5 c-14 -8 -32 -14 -40 -14 -8 0 -1 6 15 14 40 18 57 18 25 0z m-1437 -12 c-40 -2 -106 -2 -145 0 -40 1 -8 3 72 3 80 0 112 -2 73 -3z m1644 -13 c-38 -30 -163 -87 -232 -106 -40 -10 -112 -17 -215 -19 l-155 -3 150 7 c104 6 174 15 228 30 76 21 172 64 212 95 11 8 24 16 29 16 5 0 -3 -9 -17 -20z m-788 -6 c10 -9 -35 -3 -49 6 -11 8 -7 9 15 4 17 -4 32 -8 34 -10z m506 6 c-11 -5 -27 -9 -35 -9 -9 0 -8 4 5 9 11 5 27 9 35 9 9 0 8 -4 -5 -9z m-447 -17 c-10 -2 -26 -2 -35 0 -10 3 -2 5 17 5 19 0 27 -2 18 -5z m357 -4 c-22 -4 -53 -7 -70 -7 -26 1 -24 2 10 8 22 4 54 7 70 7 25 1 23 -1 -10 -8z m-272 -6 c-13 -2 -33 -2 -45 0 -13 2 -3 4 22 4 25 0 35 -2 23 -4z m130 -10 c-18 -2 -48 -2 -65 0 -18 2 -4 4 32 4 36 0 50 -2 33 -4z m-803 -12 c-22 -14 -134 -41 -161 -40 -13 0 6 7 43 15 37 8 78 19 90 24 30 11 47 12 28 1z m235 -11 c-21 -34 -255 -130 -287 -117 -8 4 -7 6 4 6 41 2 178 53 228 85 60 39 64 41 55 26z m-717 -27 c-10 -2 -26 -2 -35 0 -10 3 -2 5 17 5 19 0 27 -2 18 -5z m224 -10 c-40 -2 -103 -2 -140 0 -37 2 -4 3 73 3 77 0 107 -2 67 -3z m868 -3 c20 -6 21 -8 5 -8 -11 0 -31 4 -45 8 -20 6 -21 8 -5 8 11 0 31 -4 45 -8z m770 -10 c-27 -22 -142 -80 -156 -80 -5 1 22 16 61 36 38 19 77 41 85 49 8 8 19 15 25 15 5 0 -1 -9 -15 -20z m-682 -7 c-10 -2 -28 -2 -40 0 -13 2 -5 4 17 4 22 1 32 -1 23 -4z m-1163 -53 c27 -7 27 -8 5 -8 -14 0 -36 4 -50 8 -20 6 -21 8 -5 8 11 0 34 -4 50 -8z m750 -11 c-78 -53 -221 -110 -272 -108 -10 0 12 8 48 18 70 19 180 67 214 95 11 8 25 15 30 16 6 0 -3 -9 -20 -21z m-652 -6 c-13 -2 -33 -2 -45 0 -13 2 -3 4 22 4 25 0 35 -2 23 -4z m285 0 c-10 -2 -28 -2 -40 0 -13 2 -5 4 17 4 22 1 32 -1 23 -4z m-110 -10 c-26 -2 -71 -2 -100 0 -29 2 -8 3 47 3 55 0 79 -1 53 -3z m1393 -2 c-20 -13 -141 -35 -148 -27 -4 3 5 6 18 7 13 0 44 6 69 13 58 17 81 19 61 7z m249 -22 c-60 -51 -244 -120 -310 -118 -14 0 6 7 43 15 92 20 161 47 227 88 64 40 75 44 40 15z m-725 2 c34 -7 35 -9 10 -9 -16 0 -43 4 -60 8 -42 11 -1 11 50 1z m247 -18 c-40 -2 -103 -2 -140 0 -37 2 -4 3 73 3 77 0 107 -2 67 -3z m-612 -53 c-66 -52 -256 -121 -329 -119 -14 0 12 9 59 19 100 21 171 48 237 89 55 35 69 39 33 11z m-410 -12 c-57 -8 -210 -8 -275 0 -28 4 31 7 135 7 102 0 165 -3 140 -7z m1595 -29 c-37 -25 -102 -59 -112 -59 -11 0 119 78 132 79 6 0 -3 -8 -20 -20z m-706 -5 c8 -7 -64 -2 -89 6 -16 6 -6 7 30 3 30 -3 57 -7 59 -9z m209 -11 c-38 -2 -98 -2 -135 0 -38 2 -7 3 67 3 74 0 105 -1 68 -3z m-588 -44 c-29 -24 -123 -73 -160 -83 -14 -4 11 11 55 32 44 22 89 47 100 55 30 24 34 20 5 -4z m-691 -15 c8 -7 -63 -2 -94 7 -20 5 -9 6 30 2 33 -3 62 -7 64 -9z m174 -11 c-29 -2 -77 -2 -105 0 -29 2 -6 3 52 3 58 0 81 -1 53 -3z m1412 -3 c-11 -5 -27 -9 -35 -9 -9 0 -8 4 5 9 11 5 27 9 35 9 9 0 8 -4 -5 -9z m-456 -16 c8 -7 -54 -2 -79 6 -17 6 -9 7 25 3 28 -3 52 -7 54 -9z m716 0 c-24 -19 -131 -74 -142 -74 -4 0 21 16 56 35 36 19 69 39 75 45 5 5 15 10 21 10 5 0 1 -8 -10 -16z m-642 -11 c-13 -2 -33 -2 -45 0 -13 2 -3 4 22 4 25 0 35 -2 23 -4z m255 0 c-10 -2 -28 -2 -40 0 -13 2 -5 4 17 4 22 1 32 -1 23 -4z m-105 -10 c-24 -2 -62 -2 -85 0 -24 2 -5 4 42 4 47 0 66 -2 43 -4z m-888 -38 c-22 -8 -51 -13 -65 -13 -14 0 -3 5 25 13 65 17 91 17 40 0z m275 -15 c-37 -32 -160 -87 -212 -96 -18 -2 3 8 47 24 78 27 169 74 181 93 3 5 8 9 12 9 4 -1 -9 -14 -28 -30z m-691 4 c8 -7 -54 -2 -79 6 -17 6 -9 7 25 3 28 -3 52 -7 54 -9z m108 -11 c-20 -2 -52 -2 -70 0 -17 2 0 4 38 4 39 0 53 -2 32 -4z m186 0 c-18 -2 -48 -2 -65 0 -18 2 -4 4 32 4 36 0 50 -2 33 -4z m897 -33 c19 -1 29 -4 21 -7 -17 -7 -179 16 -186 26 -2 4 26 2 63 -5 37 -7 83 -14 102 -14z m685 10 c-8 -13 -125 -77 -155 -84 -14 -4 -2 5 27 18 28 13 68 36 89 50 42 28 48 31 39 16z m-355 -10 c-14 -4 -43 -8 -65 -8 l-40 1 40 7 c22 4 51 7 65 8 l25 0 -25 -8z m-157 -17 c-24 -2 -62 -2 -85 0 -24 2 -5 4 42 4 47 0 66 -2 43 -4z m-1364 -39 c10 -9 -45 -3 -59 6 -11 7 -5 8 20 4 19 -4 37 -8 39 -10z m781 -5 c-48 -41 -208 -110 -249 -109 -9 1 16 11 54 24 76 25 146 58 184 87 32 26 42 23 11 -2z m-631 -15 c8 -7 -64 -3 -104 6 -31 7 -24 7 30 3 39 -3 72 -7 74 -9z m219 -1 c-10 -2 -28 -2 -40 0 -13 2 -5 4 17 4 22 1 32 -1 23 -4z m-100 -10 c-15 -2 -42 -2 -60 0 -18 2 -6 4 27 4 33 0 48 -2 33 -4z m927 -18 c6 -3 -10 -3 -35 0 -25 4 -49 10 -54 15 -8 8 67 -5 89 -15z m460 10 c-22 -8 -49 -13 -60 -13 -11 0 0 6 25 13 59 17 87 17 35 0z m-362 -22 c-13 -2 -35 -2 -50 0 -16 2 -5 4 22 4 28 0 40 -2 28 -4z m222 -3 c-27 -5 -84 -8 -125 -7 l-75 1 85 6 c47 3 103 7 125 7 37 0 36 0 -10 -7z m-1436 -46 c10 -9 -45 -3 -59 6 -11 7 -5 8 20 4 19 -4 37 -8 39 -10z m170 -20 c8 -7 -104 -2 -134 6 -17 4 5 5 50 2 44 -2 82 -6 84 -8z m189 -1 c-16 -2 -40 -2 -55 0 -16 2 -3 4 27 4 30 0 43 -2 28 -4z"/>
</g>
<g id="layer109" fill="#000000" stroke="none">
<path d="M5372 2863 c-90 -91 -224 -159 -374 -189 -61 -12 -119 -15 -240 -12 l-159 4 123 -44 c113 -40 129 -43 189 -38 147 13 304 83 410 184 37 34 69 62 71 62 3 0 43 -23 89 -51 150 -91 293 -147 432 -169 95 -16 278 -8 361 15 85 23 212 85 281 137 l59 46 69 -107 c623 -961 649 -999 695 -1017 24 -9 45 -15 47 -13 2 4 -126 202 -656 1012 l-129 198 -62 -44 c-85 -60 -150 -92 -255 -124 -78 -23 -105 -26 -233 -27 -128 0 -157 3 -245 27 -106 30 -264 100 -358 160 -32 21 -61 36 -65 35 -4 0 -27 -21 -50 -45z"/>
<path d="M5345 2763 c-162 -150 -335 -208 -605 -201 l-150 3 143 -48 142 -48 75 12 c155 24 283 85 389 185 l66 62 65 -40 c166 -101 307 -157 465 -185 215 -37 455 20 633 151 l61 45 161 -247 c89 -136 238 -364 331 -507 154 -235 204 -303 216 -292 3 4 -108 178 -361 566 -73 112 -159 244 -279 428 l-86 133 -65 -45 c-80 -56 -188 -107 -281 -131 -103 -27 -331 -25 -437 4 -111 30 -250 91 -346 150 -46 29 -84 52 -85 52 -1 -1 -24 -22 -52 -47z"/>
<path d="M5352 2650 c-146 -136 -369 -209 -604 -198 -48 2 -88 3 -88 2 0 -2 51 -19 113 -40 99 -32 120 -35 179 -30 149 14 306 86 410 189 32 31 60 57 63 57 2 0 36 -21 76 -46 151 -98 328 -163 500 -184 202 -24 455 49 597 172 18 15 37 28 41 28 8 0 269 -403 550 -848 83 -131 121 -176 136 -160 4 3 -677 1052 -694 1071 -4 4 -39 -13 -77 -39 -128 -86 -233 -125 -396 -143 -207 -24 -469 47 -681 182 -32 21 -61 37 -65 37 -4 -1 -31 -23 -60 -50z"/>
<path d="M5420 2601 c0 -18 -129 -118 -199 -154 -147 -77 -328 -107 -530 -88 -66 6 -150 18 -187 27 -36 8 -70 14 -74 12 -4 -2 65 -95 154 -208 88 -114 281 -359 428 -546 146 -187 273 -346 281 -352 20 -17 119 -50 200 -67 87 -19 252 -19 341 0 130 28 228 72 349 159 l77 55 63 -39 c120 -77 296 -130 431 -130 162 0 346 62 492 165 92 66 92 66 50 125 -33 46 -202 308 -509 790 -72 113 -134 209 -138 213 -4 5 -34 -10 -67 -32 -74 -51 -186 -103 -272 -127 -90 -26 -346 -26 -440 -1 -143 39 -261 92 -417 189 -18 11 -33 15 -33 9z m192 -291 c80 -118 241 -356 357 -529 117 -172 210 -315 208 -317 -2 -2 -29 33 -59 79 -362 533 -668 989 -668 995 0 11 17 -12 162 -228z m958 60 c-47 -37 -165 -90 -250 -111 -136 -34 -458 -26 -520 13 -11 7 -8 8 10 4 102 -21 181 -29 285 -29 175 1 308 34 425 107 61 38 89 46 50 16z m-1080 -55 c0 -3 -24 -20 -52 -39 -114 -72 -255 -106 -436 -106 -112 0 -287 21 -301 36 -3 4 12 4 34 0 122 -21 169 -26 260 -26 183 0 315 32 429 101 67 42 66 41 66 34z m1140 -56 c-74 -62 -223 -113 -378 -131 -91 -10 -127 -9 -241 5 -73 10 -140 21 -149 27 -23 13 -19 12 73 -6 121 -24 328 -22 436 4 95 23 176 57 229 96 42 30 65 34 30 5z m-1070 -53 c0 -3 -27 -21 -60 -41 -74 -45 -176 -81 -272 -96 -91 -14 -342 -6 -418 14 -73 19 -55 20 55 2 129 -21 300 -19 410 5 85 19 207 69 250 104 19 15 35 20 35 12z m1144 -61 c-37 -29 -160 -85 -218 -100 -145 -37 -291 -41 -466 -14 -76 12 -95 17 -87 25 3 3 22 1 43 -5 22 -6 88 -15 147 -21 213 -21 448 29 566 121 13 11 26 17 29 14 3 -3 -3 -12 -14 -20z m-1094 -67 c-36 -30 -155 -85 -230 -105 -82 -23 -392 -26 -483 -5 -87 20 -62 25 38 7 235 -41 485 -4 640 93 58 37 71 40 35 10z m1190 -12 c0 -11 -104 -68 -165 -92 -102 -38 -201 -54 -333 -54 -109 0 -277 21 -291 36 -3 4 10 4 29 0 163 -32 388 -32 505 0 65 17 188 72 220 97 19 16 35 21 35 13z m-1106 -81 c-38 -30 -180 -93 -249 -111 -127 -33 -508 -19 -532 19 -4 6 0 8 10 4 52 -20 160 -31 297 -30 125 0 170 4 232 21 78 21 179 66 227 101 30 22 44 18 15 -4z m1146 -46 c-40 -34 -133 -77 -217 -101 -68 -20 -101 -23 -258 -23 -115 0 -201 5 -238 13 -87 20 -62 25 38 7 233 -40 485 -4 630 91 56 37 83 44 45 13z m-1085 -66 c-52 -40 -188 -95 -281 -114 -82 -17 -123 -20 -234 -16 -135 5 -260 23 -260 36 0 4 28 1 63 -7 100 -22 365 -21 457 2 84 21 177 61 230 99 37 26 59 26 25 0z m1163 -42 c-43 -34 -160 -88 -233 -107 -88 -24 -373 -27 -478 -5 -100 20 -74 25 34 7 127 -22 291 -20 408 4 87 18 211 68 256 104 11 8 24 16 29 16 5 0 -2 -9 -16 -19z m-1098 -73 c-39 -33 -159 -85 -241 -105 -92 -22 -349 -25 -452 -4 -106 21 -86 28 26 9 238 -41 465 -9 617 86 62 39 87 46 50 14z m1194 -33 c-39 -29 -151 -83 -204 -98 -79 -22 -188 -37 -271 -37 -88 0 -280 28 -294 42 -7 8 -5 9 7 5 9 -3 43 -10 75 -16 245 -42 494 -7 641 89 54 35 87 46 46 15z m-1088 -64 c-30 -33 -156 -89 -251 -112 -67 -16 -122 -22 -215 -22 -121 -1 -270 16 -300 34 -20 12 -16 11 75 -7 47 -9 134 -15 210 -15 188 0 319 31 435 106 64 40 69 42 46 16z m1144 -52 c-41 -32 -149 -80 -229 -101 -132 -36 -513 -25 -538 15 -4 7 1 8 13 3 32 -12 216 -36 284 -36 152 0 359 55 446 119 43 31 64 31 24 0z m-1071 -53 c-23 -23 -139 -82 -200 -101 -94 -29 -261 -49 -354 -40 -104 9 -208 26 -225 37 -10 6 -6 7 15 3 152 -33 354 -38 480 -11 76 17 217 76 260 109 17 13 37 15 24 3z m1155 -51 c-108 -81 -298 -135 -479 -135 -88 0 -274 25 -288 39 -4 4 25 1 65 -7 116 -24 353 -21 455 6 82 21 182 65 232 101 14 11 28 17 30 15 3 -2 -4 -11 -15 -19z m-1094 -67 c-73 -62 -249 -120 -406 -133 -75 -6 -262 9 -328 26 -61 16 -38 18 44 4 100 -18 319 -19 413 -1 88 17 209 65 252 101 17 13 35 24 40 24 6 0 -1 -9 -15 -21z"/>
</g>
<g id="layer110" fill="#fdfdfd" stroke="none">
<path d="M5394 2878 c-144 -154 -398 -240 -659 -225 -113 7 -110 4 47 -48 l86 -29 91 17 c152 29 272 90 377 190 l56 55 82 -51 c114 -71 225 -121 341 -153 87 -24 118 -28 240 -28 116 -1 153 3 219 22 116 33 241 98 309 161 16 15 30 21 36 15 7 -7 153 -233 436 -669 29 -44 95 -145 147 -225 52 -80 102 -159 112 -176 17 -28 62 -54 94 -54 14 0 15 -1 -173 285 -243 372 -307 470 -454 694 l-143 219 -43 -33 c-71 -54 -145 -92 -245 -127 -92 -31 -101 -32 -255 -33 -183 0 -260 16 -422 86 -76 34 -119 57 -244 135 -3 2 -19 -11 -35 -28z"/>
<path d="M5334 2752 c-33 -32 -86 -72 -117 -91 -127 -75 -329 -119 -498 -108 -50 3 -90 4 -88 3 17 -15 232 -76 266 -76 137 0 327 80 441 185 l71 66 58 -37 c81 -51 217 -118 288 -142 134 -43 158 -47 320 -47 137 0 170 3 230 22 99 32 201 83 264 133 l55 43 23 -30 c13 -16 51 -73 86 -126 305 -472 581 -887 589 -887 5 0 8 4 6 9 -8 22 -714 1100 -720 1101 -4 0 -36 -20 -72 -45 -129 -90 -258 -133 -427 -142 -138 -7 -245 7 -361 46 -87 29 -238 102 -298 143 -19 13 -39 27 -45 30 -5 3 -37 -19 -71 -50z"/>
<path d="M5345 2642 c-74 -70 -190 -132 -305 -164 -71 -19 -109 -23 -233 -23 -81 0 -139 -3 -130 -7 64 -25 217 -68 240 -68 41 0 186 37 246 62 71 30 152 86 211 146 l49 51 56 -38 c109 -74 259 -141 396 -177 87 -23 324 -26 400 -5 137 37 266 101 337 169 15 14 30 24 32 21 4 -4 177 -273 460 -717 88 -140 171 -265 184 -279 48 -52 32 -11 -34 92 -75 116 -97 149 -409 626 -115 177 -213 326 -217 332 -3 6 -24 -4 -50 -25 -48 -40 -159 -99 -228 -122 -70 -23 -206 -46 -275 -46 -78 0 -220 24 -305 52 -83 27 -218 90 -296 139 -34 22 -63 39 -65 39 -2 -1 -31 -27 -64 -58z"/>
<path d="M5394 2569 c-88 -94 -246 -173 -403 -203 -139 -27 -387 -15 -520 24 -19 5 -36 8 -38 6 -3 -2 71 -100 163 -217 92 -118 197 -252 234 -299 37 -47 113 -143 169 -215 56 -71 145 -185 197 -252 95 -120 96 -121 167 -148 238 -88 478 -71 707 51 47 25 108 63 137 85 l51 40 89 -51 c232 -133 486 -151 723 -49 71 30 175 92 222 132 l37 32 -87 130 c-48 72 -133 202 -188 290 -93 147 -404 637 -409 643 -1 1 -38 -22 -82 -52 -108 -72 -219 -113 -356 -133 -101 -15 -119 -15 -226 0 -172 24 -304 72 -467 168 -45 27 -84 49 -86 49 -3 0 -17 -14 -34 -31z m148 -149 c35 -52 149 -221 253 -375 104 -154 234 -346 289 -427 54 -82 97 -150 94 -154 -7 -6 -37 36 -196 273 -62 92 -207 308 -322 478 -116 171 -210 314 -210 320 0 15 24 -14 92 -115z m1038 -45 c-44 -53 -220 -119 -361 -136 -143 -16 -408 4 -425 33 -5 7 5 9 27 5 170 -30 405 -34 489 -7 129 40 182 63 245 106 26 18 41 18 25 -1z m-1101 -78 c-42 -35 -181 -94 -264 -112 -129 -29 -376 -23 -497 11 -10 3 -18 9 -18 13 0 4 30 2 68 -6 245 -48 521 -11 670 91 50 35 82 37 41 3z m1157 -36 c-22 -24 -116 -75 -179 -96 -76 -26 -204 -45 -300 -45 -97 0 -286 25 -301 40 -12 12 -18 13 100 -5 245 -37 464 -7 618 86 69 42 87 48 62 20z m-1096 -72 c-33 -28 -144 -84 -195 -98 -66 -20 -216 -41 -285 -41 -62 1 -231 22 -277 36 -13 3 -23 11 -23 16 0 6 6 8 13 5 91 -35 391 -43 511 -14 73 18 228 87 240 106 4 6 15 11 24 11 13 -1 12 -5 -8 -21z m1165 -45 c-44 -36 -139 -80 -230 -105 -67 -19 -106 -23 -235 -23 -149 -1 -304 17 -316 35 -7 12 8 11 106 -6 110 -19 290 -19 388 0 90 18 191 57 247 96 50 35 82 38 40 3z m-1085 -65 c-42 -34 -160 -87 -245 -110 -141 -38 -518 -24 -533 20 -3 8 0 11 5 8 22 -13 210 -37 295 -37 172 0 359 51 453 124 31 24 55 20 25 -5z m1160 -31 c-43 -36 -181 -95 -265 -113 -102 -23 -317 -23 -429 -1 -43 9 -81 18 -84 21 -13 12 8 12 73 -1 249 -49 506 -14 670 92 54 34 76 36 35 2z m-1070 -47 c0 -24 -146 -97 -255 -127 -90 -25 -328 -30 -445 -10 -51 9 -96 18 -98 21 -13 13 11 17 50 7 101 -25 254 -35 355 -23 150 19 290 66 353 119 27 23 40 27 40 13z m1150 -44 c0 -19 -97 -75 -180 -103 -85 -30 -221 -54 -307 -54 -109 0 -318 34 -308 50 3 4 35 1 72 -7 103 -23 347 -23 448 1 87 20 180 59 235 99 42 31 40 30 40 14z m-1110 -89 c-39 -31 -128 -73 -210 -99 -67 -21 -94 -24 -260 -24 -179 0 -310 15 -310 36 0 12 3 11 85 -7 111 -24 339 -21 445 5 90 23 194 67 237 101 14 11 29 18 32 14 3 -3 -5 -15 -19 -26z m1170 -40 c-40 -33 -159 -86 -245 -109 -127 -34 -386 -30 -517 7 -10 3 -18 10 -18 15 0 6 8 8 19 4 10 -3 58 -12 107 -20 240 -39 474 3 639 114 37 25 49 16 15 -11z m-1072 -49 c-7 -21 -124 -85 -197 -108 -95 -30 -174 -41 -301 -41 -99 0 -285 21 -297 34 -14 13 7 17 43 7 143 -38 400 -31 541 15 75 25 176 75 188 95 9 13 27 11 23 -2z m1182 -39 c0 -27 -146 -97 -275 -131 -105 -29 -515 -11 -515 22 0 11 -6 12 87 -6 45 -9 134 -15 210 -15 190 0 317 31 433 105 63 39 60 38 60 25z m-1104 -85 c-96 -78 -296 -135 -473 -135 -92 0 -293 27 -307 41 -13 12 -7 12 110 -6 246 -37 462 -6 614 89 64 40 99 47 56 11z m1174 -23 c0 -13 -105 -72 -182 -102 -101 -39 -224 -54 -383 -46 -121 6 -222 19 -233 31 -14 14 13 16 60 4 73 -19 382 -19 463 0 69 16 193 70 232 100 27 22 43 27 43 13z m-1115 -88 c-45 -37 -160 -89 -245 -110 -98 -25 -372 -25 -469 -1 -62 15 -88 27 -60 27 8 0 52 -7 99 -15 109 -19 286 -19 387 0 91 17 182 52 251 95 57 36 78 38 37 4z m1185 -23 c0 -14 -89 -67 -160 -95 -141 -56 -346 -71 -537 -40 -54 8 -100 17 -102 20 -12 12 13 12 94 -2 116 -19 309 -19 407 0 89 17 210 65 253 101 32 26 45 31 45 16z m-1090 -68 c0 -9 -65 -51 -125 -81 -131 -65 -370 -89 -560 -56 -91 16 -159 41 -80 29 213 -31 393 -31 510 1 65 17 188 72 220 97 22 18 35 21 35 10z"/>
</g>


</svg>